<svg width="190" height="190" viewBox="0 0 190 190" fill="none" xmlns="http://www.w3.org/2000/svg">
<path d="M108.938 4.74918C109.248 2.74099 107.872 0.854153 105.853 0.621987C88.3215 -1.39432 70.5473 1.51092 54.5369 9.04805C38.5265 16.5852 24.9621 28.433 15.3454 43.2299C14.238 44.9337 14.8154 47.1965 16.5608 48.2371C18.3062 49.2776 20.5581 48.7013 21.671 47.0011C30.5333 33.4617 42.987 22.6184 57.6711 15.7057C72.3551 8.79298 88.6474 6.10362 104.729 7.90019C106.749 8.12579 108.628 6.75736 108.938 4.74918Z" fill="#F2F6FC"/>
<path d="M21.6405 40.6137C20.0082 39.4035 17.6974 39.7421 16.5513 41.42C5.14272 58.1232 -0.655242 78.0642 0.0588436 98.3432C0.816162 119.85 8.85304 140.462 22.8536 156.805C36.8541 173.148 55.9886 184.254 77.1242 188.303C98.2598 192.352 120.144 189.106 139.194 179.095C158.243 169.084 173.33 152.901 181.982 133.198C190.635 113.494 192.342 91.4359 186.823 70.6357C181.303 49.8355 168.886 31.5254 151.602 18.7034C135.306 6.61345 115.594 0.0784043 95.3667 0.000668621C93.3348 -0.00714046 91.7453 1.70401 91.8161 3.73477C91.887 5.76553 93.5912 7.34626 95.6231 7.36067C114.184 7.49231 132.26 13.5164 147.218 24.6132C163.163 36.442 174.619 53.3338 179.71 72.5229C184.802 91.712 183.228 112.061 175.245 130.239C167.262 148.416 153.345 163.345 135.771 172.581C118.196 181.816 98.0074 184.812 78.5089 181.076C59.0104 177.34 41.358 167.095 28.4419 152.018C15.5258 136.941 8.11144 117.925 7.41278 98.0842C6.75736 79.4712 12.0486 61.1668 22.4675 45.8057C23.6082 44.124 23.2729 41.8239 21.6405 40.6137Z" fill="#4879F5"/>
<path d="M101.071 19.0753C101.219 17.2212 99.8364 15.5905 97.9777 15.5209C87.5381 15.1297 77.112 16.7989 67.2986 20.4451C56.4317 24.4828 46.5789 30.8472 38.43 39.0927C30.2811 47.3381 24.0332 57.2653 20.1239 68.179C16.5935 78.0347 15.0474 88.4797 15.5615 98.9139C15.653 100.772 17.2999 102.135 19.1521 101.965C21.0044 101.795 22.3598 100.156 22.2756 98.2975C21.8468 88.8418 23.2658 79.3817 26.4651 70.4505C30.0433 60.461 35.7621 51.3746 43.2208 43.8274C50.6796 36.2802 59.698 30.4548 69.6446 26.7591C78.5376 23.4548 87.9803 21.9244 97.4404 22.2418C99.2994 22.3041 100.923 20.9294 101.071 19.0753Z" fill="#F2F6FC"/>
<path d="M19.404 85.6912C17.5579 85.4639 15.8696 86.7761 15.7206 88.6301C14.5088 103.71 17.6223 118.849 24.7305 132.256C32.3654 146.656 44.2404 158.363 58.7481 165.793C73.2558 173.222 89.6958 176.014 105.843 173.792C121.99 171.57 137.065 164.441 149.026 153.369C160.988 142.297 169.259 127.818 172.721 111.89C176.182 95.9628 174.666 79.3563 168.379 64.3186C162.091 49.2809 151.335 36.538 137.567 27.8147C124.748 19.6932 109.895 15.4208 94.7664 15.4654C92.9064 15.4709 91.4678 17.053 91.552 18.9111C91.6362 20.7692 93.2115 22.199 95.0715 22.2009C108.82 22.2142 122.309 26.1219 133.962 33.5045C146.564 41.4891 156.409 53.1528 162.164 66.917C167.92 80.6812 169.307 95.8812 166.139 110.46C162.97 125.038 155.4 138.292 144.451 148.426C133.502 158.56 119.704 165.086 104.925 167.119C90.145 169.153 75.0973 166.597 61.8182 159.797C48.5391 152.997 37.6699 142.282 30.6815 129.101C24.22 116.913 21.3648 103.162 22.4124 89.454C22.5541 87.5994 21.25 85.9185 19.404 85.6912Z" fill="#44D2F1"/>
<path d="M38.004 120.427C36.6635 121.036 35.0769 120.446 34.5233 119.081C30.5276 109.23 29.0407 98.5248 30.2167 87.9312C31.4909 76.4529 35.8439 65.5324 42.8152 56.325C49.7865 47.1177 59.1169 39.9658 69.8192 35.626C79.6967 31.6207 90.4039 30.1481 100.97 31.322C102.433 31.4846 103.432 32.8516 103.209 34.3072C102.985 35.7629 101.624 36.7555 100.16 36.5985C90.5455 35.567 80.8099 36.9242 71.8233 40.5683C62.0118 44.5468 53.4581 51.1034 47.0671 59.5443C40.6761 67.9853 36.6854 77.9967 35.5173 88.5196C34.4474 98.1576 35.7818 107.896 39.3824 116.871C39.9308 118.238 39.3445 119.817 38.004 120.427Z" fill="#F2F6FC"/>
<path d="M90.515 33.6899C90.4339 32.2195 91.5606 30.9559 93.0332 30.936C104.125 30.7867 115.083 33.5202 124.824 38.8898C135.345 44.6891 144.023 53.3295 149.869 63.8249C155.714 74.3203 158.491 86.2477 157.883 98.2458C157.274 110.244 153.305 121.829 146.427 131.679C139.55 141.529 130.041 149.247 118.987 153.952C107.934 158.657 95.7797 160.159 83.9129 158.287C72.0462 156.416 60.9448 151.245 51.8758 143.366C43.4788 136.071 37.1376 126.726 33.4564 116.262C32.9677 114.873 33.7658 113.38 35.1742 112.949C36.5825 112.519 38.0674 113.314 38.5614 114.701C41.9468 124.21 47.7315 132.701 55.3735 139.34C63.6876 146.563 73.8649 151.303 84.7439 153.019C95.6228 154.735 106.765 153.358 116.899 149.045C127.032 144.731 135.749 137.656 142.054 128.626C148.359 119.596 151.999 108.975 152.557 97.9756C153.114 86.9763 150.569 76.0417 145.21 66.4199C139.851 56.7982 131.895 48.877 122.249 43.5604C113.384 38.6736 103.42 36.1684 93.3269 36.2661C91.8543 36.2804 90.5961 35.1604 90.515 33.6899Z" fill="#20C745"/>
<path d="M104.139 49.1718C104.47 47.6894 103.537 46.2111 102.039 45.9622C91.799 44.2615 81.2572 45.8065 71.9066 50.4185C61.7319 55.4369 53.5799 63.7847 48.8044 74.0757C44.0289 84.3667 42.9173 95.9816 45.6541 106.992C48.1692 117.11 53.7955 126.157 61.7054 132.879C62.8629 133.863 64.5939 133.62 65.512 132.41C66.4301 131.2 66.187 129.481 65.0363 128.49C58.1232 122.533 53.2046 114.564 50.9923 105.665C48.5584 95.873 49.547 85.5434 53.7941 76.3911C58.0411 67.2389 65.291 59.8148 74.3398 55.3517C82.5643 51.2952 91.8251 49.9066 100.837 51.3398C102.338 51.5783 103.807 50.6542 104.139 49.1718Z" fill="#F2F6FC"/>
<path d="M58.622 125.999C57.481 127.002 57.3637 128.745 58.4279 129.829C63.6749 135.172 70.0706 139.27 77.1435 141.802C85.0811 144.643 93.6108 145.418 101.931 144.056C110.25 142.693 118.087 139.236 124.703 134.011C131.32 128.786 136.498 121.964 139.752 114.187C143.007 106.41 144.229 97.9324 143.305 89.5524C142.381 81.1725 139.341 73.1653 134.471 66.2836C129.601 59.402 123.06 53.8721 115.464 50.214C108.696 46.9543 101.288 45.2763 93.7995 45.2908C92.2805 45.2937 91.1211 46.6015 91.208 48.118C91.2949 49.6345 92.5954 50.7844 94.1144 50.7919C100.671 50.8244 107.15 52.3151 113.078 55.1699C119.833 58.4232 125.65 63.3412 129.981 69.4613C134.312 75.5814 137.016 82.7026 137.838 90.1553C138.659 97.6079 137.572 105.147 134.678 112.064C131.784 118.981 127.178 125.048 121.294 129.694C115.41 134.341 108.441 137.415 101.041 138.627C93.6423 139.839 86.0564 139.149 78.9972 136.623C72.8028 134.405 67.1925 130.838 62.5666 126.192C61.4949 125.115 59.763 124.996 58.622 125.999Z" fill="#F4A74B"/>
<path d="M103.11 63.0114C103.428 61.7543 102.669 60.4687 101.393 60.2341C96.929 59.4132 92.341 59.4584 87.8808 60.3755C82.6525 61.4505 77.7356 63.6955 73.4989 66.9421C69.2622 70.1888 65.8157 74.3527 63.4181 79.1215C61.0205 83.8903 59.7339 89.1402 59.655 94.4773C59.5761 99.8143 60.7068 105.1 62.9623 109.938C65.2179 114.775 68.5397 119.039 72.6785 122.41C76.8173 125.78 81.6657 128.17 86.8599 129.399C91.291 130.447 95.8757 130.628 100.362 129.94C101.644 129.743 102.442 128.48 102.16 127.215C101.879 125.949 100.625 125.16 99.341 125.343C95.5493 125.886 91.6823 125.714 87.9414 124.829C83.4373 123.763 79.2331 121.691 75.6441 118.768C72.0552 115.845 69.1747 112.148 67.2188 107.953C65.263 103.758 64.2825 99.1747 64.3509 94.5467C64.4194 89.9187 65.535 85.3664 67.6141 81.2311C69.6931 77.0959 72.6817 73.4852 76.3555 70.6699C80.0293 67.8546 84.293 65.9079 88.8266 64.9757C92.5921 64.2015 96.4625 64.1439 100.237 64.7982C101.514 65.0198 102.791 64.2685 103.11 63.0114Z" fill="#F2F6FC"/>
<path d="M95 128.001C95 129.298 96.0525 130.357 97.3465 130.271C101.392 130.002 105.367 129.038 109.096 127.417C113.544 125.483 117.546 122.654 120.853 119.107C124.161 115.56 126.703 111.37 128.322 106.798C129.941 102.226 130.601 97.3696 130.262 92.5314C129.924 87.6932 128.593 82.9765 126.353 78.6746C124.113 74.3728 121.012 70.578 117.242 67.5262C113.473 64.4744 109.116 62.231 104.442 60.9355C100.523 59.8494 96.4528 59.4491 92.4093 59.7462C91.1159 59.8413 90.2213 61.0371 90.402 62.3213C90.5827 63.6055 91.7704 64.4906 93.0647 64.4088C96.4685 64.1934 99.8901 64.5474 103.187 65.4613C107.24 66.5847 111.019 68.53 114.287 71.1763C117.556 73.8227 120.245 77.1133 122.188 80.8436C124.13 84.5739 125.284 88.664 125.578 92.8594C125.871 97.0548 125.298 101.266 123.895 105.23C122.491 109.195 120.287 112.828 117.419 115.904C114.55 118.98 111.08 121.433 107.223 123.11C104.085 124.474 100.747 125.301 97.3459 125.563C96.0528 125.662 95 126.704 95 128.001Z" fill="#F45252"/>
<path d="M76.7416 101.163V92.9238L74.8516 94.0788V92.2168L76.7416 91.0828H78.4636V101.163H76.7416ZM84.7563 101.373C84.0423 101.373 83.4123 101.221 82.8663 100.918C82.3203 100.61 81.8933 100.183 81.5853 99.6368C81.282 99.0908 81.1303 98.4608 81.1303 97.7468V94.4988C81.1303 93.7848 81.282 93.1548 81.5853 92.6088C81.8933 92.0628 82.3203 91.6381 82.8663 91.3348C83.4123 91.0268 84.0423 90.8728 84.7563 90.8728C85.4703 90.8728 86.098 91.0268 86.6393 91.3348C87.1853 91.6381 87.6123 92.0628 87.9203 92.6088C88.2283 93.1548 88.3823 93.7848 88.3823 94.4988V97.7468C88.3823 98.4608 88.2283 99.0908 87.9203 99.6368C87.6123 100.183 87.1853 100.61 86.6393 100.918C86.098 101.221 85.4703 101.373 84.7563 101.373ZM84.7563 99.7698C85.111 99.7698 85.433 99.6858 85.7223 99.5178C86.0116 99.3451 86.2403 99.1165 86.4083 98.8318C86.5763 98.5425 86.6603 98.2205 86.6603 97.8658V94.3728C86.6603 94.0135 86.5763 93.6915 86.4083 93.4068C86.2403 93.1175 86.0116 92.8888 85.7223 92.7208C85.433 92.5481 85.111 92.4618 84.7563 92.4618C84.4016 92.4618 84.0796 92.5481 83.7903 92.7208C83.501 92.8888 83.2723 93.1175 83.1043 93.4068C82.9363 93.6915 82.8523 94.0135 82.8523 94.3728V97.8658C82.8523 98.2205 82.9363 98.5425 83.1043 98.8318C83.2723 99.1165 83.501 99.3451 83.7903 99.5178C84.0796 99.6858 84.4016 99.7698 84.7563 99.7698ZM93.9711 101.373C93.2571 101.373 92.6271 101.221 92.0811 100.918C91.5351 100.61 91.1081 100.183 90.8001 99.6368C90.4968 99.0908 90.3451 98.4608 90.3451 97.7468V94.4988C90.3451 93.7848 90.4968 93.1548 90.8001 92.6088C91.1081 92.0628 91.5351 91.6381 92.0811 91.3348C92.6271 91.0268 93.2571 90.8728 93.9711 90.8728C94.6851 90.8728 95.3128 91.0268 95.8541 91.3348C96.4001 91.6381 96.8271 92.0628 97.1351 92.6088C97.4431 93.1548 97.5971 93.7848 97.5971 94.4988V97.7468C97.5971 98.4608 97.4431 99.0908 97.1351 99.6368C96.8271 100.183 96.4001 100.61 95.8541 100.918C95.3128 101.221 94.6851 101.373 93.9711 101.373ZM93.9711 99.7698C94.3258 99.7698 94.6478 99.6858 94.9371 99.5178C95.2265 99.3451 95.4551 99.1165 95.6231 98.8318C95.7911 98.5425 95.8751 98.2205 95.8751 97.8658V94.3728C95.8751 94.0135 95.7911 93.6915 95.6231 93.4068C95.4551 93.1175 95.2265 92.8888 94.9371 92.7208C94.6478 92.5481 94.3258 92.4618 93.9711 92.4618C93.6165 92.4618 93.2945 92.5481 93.0051 92.7208C92.7158 92.8888 92.4871 93.1175 92.3191 93.4068C92.1511 93.6915 92.0671 94.0135 92.0671 94.3728V97.8658C92.0671 98.2205 92.1511 98.5425 92.3191 98.8318C92.4871 99.1165 92.7158 99.3451 93.0051 99.5178C93.2945 99.6858 93.6165 99.7698 93.9711 99.7698ZM100.96 101.163L99.84 100.043L108.807 91.0828L109.927 92.2098L100.96 101.163ZM107.827 101.373C107.365 101.373 106.943 101.261 106.56 101.037C106.182 100.808 105.879 100.505 105.65 100.127C105.421 99.7441 105.307 99.3195 105.307 98.8528C105.307 98.3955 105.424 97.9755 105.657 97.5928C105.89 97.2101 106.198 96.9045 106.581 96.6758C106.964 96.4471 107.379 96.3328 107.827 96.3328C108.289 96.3328 108.711 96.4471 109.094 96.6758C109.477 96.8998 109.78 97.2031 110.004 97.5858C110.233 97.9638 110.347 98.3861 110.347 98.8528C110.347 99.3195 110.233 99.7441 110.004 100.127C109.78 100.505 109.477 100.808 109.094 101.037C108.711 101.261 108.289 101.373 107.827 101.373ZM107.827 99.9308C108.018 99.9308 108.196 99.8818 108.359 99.7838C108.527 99.6858 108.66 99.5551 108.758 99.3918C108.856 99.2285 108.905 99.0488 108.905 98.8528C108.905 98.6568 108.856 98.4771 108.758 98.3138C108.66 98.1505 108.527 98.0198 108.359 97.9218C108.196 97.8238 108.018 97.7748 107.827 97.7748C107.631 97.7748 107.451 97.8238 107.288 97.9218C107.125 98.0198 106.992 98.1505 106.889 98.3138C106.791 98.4771 106.742 98.6568 106.742 98.8528C106.742 99.0488 106.791 99.2285 106.889 99.3918C106.992 99.5551 107.125 99.6858 107.288 99.7838C107.451 99.8818 107.631 99.9308 107.827 99.9308ZM101.94 95.9128C101.478 95.9128 101.056 95.8008 100.673 95.5768C100.29 95.3481 99.9847 95.0448 99.756 94.6668C99.532 94.2841 99.42 93.8595 99.42 93.3928C99.42 92.9355 99.5367 92.5155 99.77 92.1328C100.003 91.7501 100.311 91.4445 100.694 91.2158C101.077 90.9871 101.492 90.8728 101.94 90.8728C102.402 90.8728 102.822 90.9871 103.2 91.2158C103.583 91.4398 103.888 91.7431 104.117 92.1258C104.346 92.5038 104.46 92.9261 104.46 93.3928C104.46 93.8595 104.346 94.2841 104.117 94.6668C103.888 95.0448 103.583 95.3481 103.2 95.5768C102.822 95.8008 102.402 95.9128 101.94 95.9128ZM101.94 94.4708C102.136 94.4708 102.316 94.4218 102.479 94.3238C102.642 94.2258 102.773 94.0951 102.871 93.9318C102.969 93.7685 103.018 93.5888 103.018 93.3928C103.018 93.1968 102.969 93.0171 102.871 92.8538C102.773 92.6905 102.642 92.5598 102.479 92.4618C102.316 92.3638 102.136 92.3148 101.94 92.3148C101.744 92.3148 101.564 92.3638 101.401 92.4618C101.238 92.5598 101.107 92.6905 101.009 92.8538C100.911 93.0171 100.862 93.1968 100.862 93.3928C100.862 93.5888 100.911 93.7685 101.009 93.9318C101.107 94.0951 101.238 94.2258 101.401 94.3238C101.564 94.4218 101.744 94.4708 101.94 94.4708Z" fill="#808191"/>
</svg>
