<svg width="21" height="20" viewBox="0 0 21 20" fill="none" xmlns="http://www.w3.org/2000/svg">
<path fill-rule="evenodd" clip-rule="evenodd" d="M16.2248 9.99512C16.2248 9.49537 16.5581 9.1622 17.0581 9.1622C17.5581 9.1622 17.8915 9.49537 17.8915 9.99512V15.8256C17.8915 17.2416 16.8081 18.3244 15.3915 18.3244H3.72479C2.30813 18.3244 1.22479 17.2416 1.22479 15.8256V4.16462C1.22479 2.74864 2.30813 1.66583 3.72479 1.66583H12.8915C13.3915 1.66583 13.7248 1.999 13.7248 2.49876C13.7248 2.99852 13.3915 3.33169 12.8915 3.33169H3.72479C3.22479 3.33169 2.89146 3.66486 2.89146 4.16462V15.8256C2.89146 16.3254 3.22479 16.6586 3.72479 16.6586H15.3915C15.8915 16.6586 16.2248 16.3254 16.2248 15.8256V9.99512ZM10.1415 12.244L19.3081 3.08181C19.6415 2.74864 19.6415 2.24888 19.3081 1.91571C18.9748 1.58254 18.4748 1.58254 18.1415 1.91571L9.55813 10.4949L7.64146 8.57915C7.30813 8.24597 6.80813 8.24597 6.47479 8.57915C6.14146 8.91232 6.14146 9.41207 6.47479 9.74525L8.97479 12.244C9.14146 12.4106 9.30813 12.4939 9.55813 12.4939C9.80813 12.4939 9.97479 12.4106 10.1415 12.244Z" fill="black"/>
<mask id="mask0_1551_502" style="mask-type:alpha" maskUnits="userSpaceOnUse" x="1" y="1" width="19" height="18">
<path fill-rule="evenodd" clip-rule="evenodd" d="M16.2248 9.99512C16.2248 9.49537 16.5581 9.1622 17.0581 9.1622C17.5581 9.1622 17.8915 9.49537 17.8915 9.99512V15.8256C17.8915 17.2416 16.8081 18.3244 15.3915 18.3244H3.72479C2.30813 18.3244 1.22479 17.2416 1.22479 15.8256V4.16462C1.22479 2.74864 2.30813 1.66583 3.72479 1.66583H12.8915C13.3915 1.66583 13.7248 1.999 13.7248 2.49876C13.7248 2.99852 13.3915 3.33169 12.8915 3.33169H3.72479C3.22479 3.33169 2.89146 3.66486 2.89146 4.16462V15.8256C2.89146 16.3254 3.22479 16.6586 3.72479 16.6586H15.3915C15.8915 16.6586 16.2248 16.3254 16.2248 15.8256V9.99512ZM10.1415 12.244L19.3081 3.08181C19.6415 2.74864 19.6415 2.24888 19.3081 1.91571C18.9748 1.58254 18.4748 1.58254 18.1415 1.91571L9.55813 10.4949L7.64146 8.57915C7.30813 8.24597 6.80813 8.24597 6.47479 8.57915C6.14146 8.91232 6.14146 9.41207 6.47479 9.74525L8.97479 12.244C9.14146 12.4106 9.30813 12.4939 9.55813 12.4939C9.80813 12.4939 9.97479 12.4106 10.1415 12.244Z" fill="white"/>
</mask>
<g mask="url(#mask0_1551_502)">
<rect x="0.391449" width="20" height="19.9903" fill="#6E6B7B"/>
</g>
</svg>
