<svg width="20" height="20" viewBox="0 0 20 20" fill="none" xmlns="http://www.w3.org/2000/svg">
<path fill-rule="evenodd" clip-rule="evenodd" d="M19.1667 14.1666C19.1667 14.6666 18.8333 15 18.3333 15H1.66668C1.16668 15 0.833344 14.6666 0.833344 14.1666C0.833344 13.6666 1.16668 13.3333 1.66668 13.3333C2.58334 13.3333 3.33334 12.5833 3.33334 11.6666V7.49998C3.33334 3.83331 6.33334 0.833313 10 0.833313C13.6667 0.833313 16.6667 3.83331 16.6667 7.49998V11.6666C16.6667 12.5833 17.4167 13.3333 18.3333 13.3333C18.8333 13.3333 19.1667 13.6666 19.1667 14.1666ZM12.1667 17.9166C11.6667 18.75 10.8333 19.1666 10 19.1666C9.58334 19.1666 9.16668 19.0833 8.75001 18.8333C8.33335 18.5833 8.08335 18.3333 7.83335 17.9166C7.58335 17.5 7.75001 17 8.16668 16.75C8.58335 16.5 9.08335 16.6666 9.33335 17.0833C9.35857 17.1085 9.3838 17.1414 9.41134 17.1773L9.41135 17.1773C9.47478 17.2599 9.55047 17.3585 9.66668 17.4166C10.0833 17.6666 10.5833 17.5 10.8333 17.0833C11.0833 16.6666 11.5833 16.5833 12 16.75C12.4167 16.9166 12.4167 17.5 12.1667 17.9166ZM15 11.6666C15 12.25 15.1667 12.8333 15.4167 13.3333H4.58334C4.83334 12.8333 5.00001 12.25 5.00001 11.6666V7.49998C5.00001 4.74998 7.25001 2.49998 10 2.49998C12.75 2.49998 15 4.74998 15 7.49998V11.6666Z" fill="black"/>
<mask id="mask0_1551_486" style="mask-type:alpha" maskUnits="userSpaceOnUse" x="0" y="0" width="20" height="20">
<path fill-rule="evenodd" clip-rule="evenodd" d="M19.1667 14.1666C19.1667 14.6666 18.8333 15 18.3333 15H1.66668C1.16668 15 0.833344 14.6666 0.833344 14.1666C0.833344 13.6666 1.16668 13.3333 1.66668 13.3333C2.58334 13.3333 3.33334 12.5833 3.33334 11.6666V7.49998C3.33334 3.83331 6.33334 0.833313 10 0.833313C13.6667 0.833313 16.6667 3.83331 16.6667 7.49998V11.6666C16.6667 12.5833 17.4167 13.3333 18.3333 13.3333C18.8333 13.3333 19.1667 13.6666 19.1667 14.1666ZM12.1667 17.9166C11.6667 18.75 10.8333 19.1666 10 19.1666C9.58334 19.1666 9.16668 19.0833 8.75001 18.8333C8.33335 18.5833 8.08335 18.3333 7.83335 17.9166C7.58335 17.5 7.75001 17 8.16668 16.75C8.58335 16.5 9.08335 16.6666 9.33335 17.0833C9.35857 17.1085 9.3838 17.1414 9.41134 17.1773L9.41135 17.1773C9.47478 17.2599 9.55047 17.3585 9.66668 17.4166C10.0833 17.6666 10.5833 17.5 10.8333 17.0833C11.0833 16.6666 11.5833 16.5833 12 16.75C12.4167 16.9166 12.4167 17.5 12.1667 17.9166ZM15 11.6666C15 12.25 15.1667 12.8333 15.4167 13.3333H4.58334C4.83334 12.8333 5.00001 12.25 5.00001 11.6666V7.49998C5.00001 4.74998 7.25001 2.49998 10 2.49998C12.75 2.49998 15 4.74998 15 7.49998V11.6666Z" fill="white"/>
</mask>
<g mask="url(#mask0_1551_486)">
<rect width="20" height="20" fill="#6E6B7B"/>
</g>
</svg>
